<?xml version="1.0" encoding="UTF-8"?>
<svg id="Calque_2" data-name="Calque 2" xmlns="http://www.w3.org/2000/svg" viewBox="0 0 865.71 226.94">
  <defs>
    <style>
      .cls-1 {
        fill: #fff;
      }

      .cls-2 {
        fill: #ff5f00;
      }
    </style>
  </defs>
  <g id="Calque_1-2" data-name="Calque 1">
    <path d="M865.71,37.97H198.64v.53C177.85,14.9,147.4,0,113.47,0,50.8,0,0,50.8,0,113.47s50.8,113.47,113.47,113.47c34.19,0,64.85-15.12,85.65-39.05h666.58V37.97Z"/>
    <g>
      <path class="cls-1" d="M773.87,163.07h-19.68v-30c0-1.56-3.56-5.52-5.04-5.52h-13.44l-.72.72v34.8h-19.68V62.75h45.84c5.33,0,11.83,6.12,12.59,11.41.94,6.47.76,24.32.07,31.02-.49,4.68-3.24,9.92-7.14,12.55,2.39,3.18,5.2,5.4,6.39,9.43.15.51.81,3.27.81,3.51v32.4ZM754.19,81.47h-18.48l-.72.72v25.92l.72.72h12.96c1.7,0,5.52-4.02,5.52-6v-21.36Z"/>
      <path class="cls-1" d="M655.68,62.88c6.34-.76,29.11-.93,34.76.49,8.72,2.19,10.56,8.93,10.96,16.88,1.01,19.82,1.08,46.02,0,65.8-.15,2.82-.43,6.93-1.67,9.37-2.15,4.22-7.32,7.26-12.01,7.67-7.53.65-25.86.89-33.1-.06-6.61-.87-11.74-6.63-12.3-13.14-2.03-23.71,1.51-50.35.08-74.36.86-7.15,6.26-11.81,13.27-12.65ZM681.23,81.47h-18.72v62.88h18.72v-62.88Z"/>
      <path class="cls-1" d="M388.8,62.88c7.36-.89,25.49-.89,32.85,0,6.55.79,12.26,5.81,12.87,12.57l-.02,75.38c-.95,6.58-6.59,11.65-13.18,12.26-7.34.67-26.47.87-33.5-.15-4.68-.68-10.14-5.09-11.43-9.69l-.41-79.18c1.36-6.13,6.66-10.45,12.81-11.19ZM414.35,81.47h-18l-.72.72v62.16h18.72v-62.88Z"/>
      <path class="cls-1" d="M316.8,62.88c7.37-.89,25.49-.89,32.85,0,6.68.8,12.28,5.71,12.87,12.57,2.08,24.03-1.59,51.03-.02,75.37-.66,6.56-6.77,11.71-13.18,12.26-7.54.65-25.85.89-33.1-.06-6-.79-11.92-6.48-12.3-12.66l.06-75.82c1.19-6.32,6.48-10.9,12.81-11.67ZM342.83,81.47h-18.72v62.88h18.72v-62.88Z"/>
      <polygon class="cls-1" points="251.63 62.75 251.63 103.55 270.35 103.55 270.35 62.75 289.79 62.75 290.51 63.47 290.51 163.07 270.35 163.07 270.35 122.27 251.63 122.27 251.63 163.07 231.47 163.07 231.47 63.47 232.19 62.75 251.63 62.75"/>
      <path class="cls-1" d="M554.03,81.47h-18.72v17.04c0,2.77,4.15,4.65,6.52,5,9.91,1.48,16.93.23,25.17,7.95,8.81,8.26,8.1,26.59,7.21,37.95-.56,7.05-5.1,11.94-11.89,13.55-10.84-.59-23.31,1.19-33.96.11-4.95-.5-11.19-4.73-12.4-9.68-.27-1.12-.81-4.89-.81-5.91v-17.76l.72-.72h18.72l.72.72v14.64h18.72v-17.52c0-2.01-3.97-4.01-5.74-4.34-4.41-.84-8.54-.12-13.47-1.41-20.53-5.39-20.68-23.31-19.69-41.3.43-7.83,2.49-14.27,10.96-16.4,5.78-1.45,27.34-1.22,33.93-.61,6.42.59,14.17,5.59,14.17,12.71v20.64l-.72.72h-18.72l-.72-.72v-14.64Z"/>
      <path class="cls-1" d="M468.59,127.55v35.52h-19.68V62.75h45.36c5.04,0,11.17,5.18,12.58,9.98s1.04,24.73.64,30.6c-1.43,20.59-21.38,25.6-38.9,24.22ZM487.31,81.47h-18.72v27.36h12.24c1.71,0,6.48-2.55,6.48-4.56v-22.8Z"/>
      <polygon class="cls-1" points="840.11 62.75 840.11 81.47 806.99 81.47 806.99 103.55 834.35 103.55 834.35 122.27 806.99 122.27 806.99 144.35 840.11 144.35 840.11 163.07 787.55 163.07 786.83 162.35 786.83 63.47 787.55 62.75 840.11 62.75"/>
      <polygon class="cls-1" points="638.03 62.75 638.03 81.47 618.83 81.47 618.83 163.07 599.15 163.07 599.15 81.47 579.47 81.47 579.47 62.75 638.03 62.75"/>
    </g>
    <g>
      <path class="cls-2" d="M54.8,29c27.49-5.06,56.03-.96,81.86,9.13l.93-.49c3.76-12.34-6.51-20.14-16.72-24.08-19.25-7.44-40.58,1.06-57.76,10.08l-8.32,5.36ZM164.69,51.54c3.04-7.42,6.67-14.85,6.97-23.05-8.88-6.3-18.91-11.22-29.51-13.88,7.24,7.88,8.38,18.16,5.97,28.32l16.57,8.62ZM200.24,58.76c.1-.55-.06-.93-.26-1.42-1.57-3.93-14.32-18.09-17.98-20.9-.48-.37-.61-.93-1.44-.71-.48,7.97-3.81,15.64-6.7,23l13.19,10.57c3.16-4.56,7.33-9.88,13.19-10.53ZM132.07,48.2c-28.49-9.26-63.52-17.14-91.78-3.23-6.78,3.34-8.66,5.47-12.77,11.71-13.18,20-19.03,45.47-15.93,69.27l7.66-10.81c24.37-26.57,60.6-35.84,91.7-51.82,6.34-3.26,14.17-7.82,19.29-12.76.38-.37,2.22-1.95,1.82-2.37ZM143.83,53.61c-18.29,22.22-47.39,29.35-72.41,41.21-16.38,7.77-40.24,19.44-49.65,35.31-1.87,3.15-5.64,11.41-5.7,14.87-.04,1.86,3.26,9.24,4.24,11.37,7.77,16.86,20.38,31.19,35.48,41.83,1.42.62,3.73-1.44,4.92-2.26,13.08-8.92,26.3-25.8,36.05-38.35,23.2-29.87,44.28-62.14,62.56-95.25-.1-1.2-13.52-7.78-15.49-8.74ZM169.28,68.85c-17.84,33.08-38.12,65.01-61.69,94.3-11.99,14.89-24.8,29.49-40.28,40.84l-.03.93c21.53,10,54.88,17.25,76.47,4.46,38.64-22.88,27.32-81.14,35.04-118.56.5-2.45,2.79-8.52,2.77-10.24-.01-1.39-3.83-4.89-5.06-5.99-2.28-2.03-5.04-3.57-7.21-5.74ZM216.07,115.4c.52-11.75-1.31-23.5-4.93-34.66-.66-2.04-3.02-8.95-4.17-10.23-3.2-3.57-7.73.43-9.81,3.18-3.98,5.25-1.12,5.06,2.04,9.4,4.92,6.74,9.2,13.82,12.64,21.44l4.23,10.88ZM168.08,199.88c.36.33,2.96-1.62,3.51-2,13.68-9.52,28.9-25.92,35.45-41.35,5.07-11.94,4.64-20.74,1.22-33.07-3.38-12.19-9.72-24.34-17.87-33.97-9.14,36.35.97,78.25-22.32,110.39Z"/>
      <path class="cls-2" d="M143.83,53.61c1.96.96,15.39,7.54,15.49,8.74-18.28,33.11-39.37,65.37-62.56,95.25-9.75,12.55-22.97,29.44-36.05,38.35-1.19.81-3.5,2.88-4.92,2.26-15.1-10.65-27.71-24.98-35.48-41.83-.98-2.13-4.28-9.51-4.24-11.37.07-3.46,3.84-11.72,5.7-14.87,9.42-15.86,33.27-27.54,49.65-35.31,25.02-11.87,54.12-18.99,72.41-41.21Z"/>
      <path class="cls-2" d="M169.28,68.85c2.18,2.17,4.93,3.71,7.21,5.74,1.23,1.1,5.05,4.61,5.06,5.99.02,1.72-2.27,7.79-2.77,10.24-7.71,37.43,3.6,95.68-35.04,118.56-21.59,12.79-54.93,5.53-76.47-4.46l.03-.93c15.48-11.35,28.3-25.95,40.28-40.84,23.57-29.29,43.85-61.22,61.69-94.3Z"/>
      <path class="cls-2" d="M132.07,48.2c.4.42-1.44,2-1.82,2.37-5.12,4.93-12.94,9.5-19.29,12.76-31.1,15.98-67.33,25.25-91.7,51.82l-7.66,10.81c-3.1-23.8,2.75-49.26,15.93-69.27,4.11-6.24,5.98-8.37,12.77-11.71,28.26-13.91,63.29-6.03,91.78,3.23Z"/>
      <path class="cls-2" d="M168.08,199.88c23.28-32.14,13.17-74.05,22.32-110.39,8.14,9.64,14.48,21.79,17.87,33.97,3.42,12.32,3.85,21.13-1.22,33.07-6.56,15.43-21.77,31.83-35.45,41.35-.55.38-3.15,2.33-3.51,2Z"/>
      <path class="cls-2" d="M54.8,29l8.32-5.36c17.18-9.02,38.52-17.52,57.76-10.08,10.2,3.95,20.48,11.74,16.72,24.08l-.93.49c-25.84-10.09-54.37-14.19-81.86-9.13Z"/>
      <path class="cls-2" d="M164.69,51.54l-16.57-8.62c2.41-10.15,1.27-20.43-5.97-28.32,10.61,2.66,20.63,7.58,29.51,13.88-.3,8.2-3.94,15.63-6.97,23.05Z"/>
      <path class="cls-2" d="M200.24,58.76c-5.86.65-10.03,5.97-13.19,10.53l-13.19-10.57c2.9-7.36,6.23-15.02,6.7-23,.83-.22.96.35,1.44.71,3.66,2.81,16.41,16.97,17.98,20.9.2.49.36.87.26,1.42Z"/>
      <path class="cls-2" d="M216.07,115.4l-4.23-10.88c-3.44-7.61-7.73-14.7-12.64-21.44-3.16-4.34-6.02-4.15-2.04-9.4,2.08-2.75,6.62-6.75,9.81-3.18,1.15,1.28,3.51,8.2,4.17,10.23,3.62,11.16,5.45,22.9,4.93,34.66Z"/>
    </g>
  </g>
</svg>